Coordinates
version=1
nRows=4
nColumns=63
inDegrees=yes

Units are S.I. units (second, meters, Newtons, ...)
If the header above contains a line with 'inDegrees', this indicates whether rotational values are in degrees (yes) or radians (no).

endheader
time	pelvis_tilt	pelvis_list	pelvis_rotation	pelvis_tx	pelvis_ty	pelvis_tz	hip_flexion_r	hip_adduction_r	hip_rotation_r	knee_angle_r	knee_angle_r_beta	ankle_angle_r	subtalar_angle_r	mtp_angle_r	hip_flexion_l	hip_adduction_l	hip_rotation_l	knee_angle_l	knee_angle_l_beta	ankle_angle_l	subtalar_angle_l	mtp_angle_l	L5_S1_Flex_Ext	L5_S1_Lat_Bending	L5_S1_axial_rotation	L4_L5_Flex_Ext	L4_L5_Lat_Bending	L4_L5_axial_rotation	L3_L4_Flex_Ext	L3_L4_Lat_Bending	L3_L4_axial_rotation	L2_L3_Flex_Ext	L2_L3_Lat_Bending	L2_L3_axial_rotation	L1_L2_Flex_Ext	L1_L2_Lat_Bending	L1_L2_axial_rotation	L1_T12_Flex_Ext	L1_T12_Lat_Bending	L1_T12_axial_rotation	Abs_r3	Abs_r2	Abs_r1	Abs_t1	Abs_t2	neck_flexion	neck_bending	neck_rotation	arm_flex_r	arm_add_r	arm_rot_r	elbow_flex_r	pro_sup_r	wrist_flex_r	wrist_dev_r	arm_flex_l	arm_add_l	arm_rot_l	elbow_flex_l	pro_sup_l	wrist_flex_l	wrist_dev_l
     12.26700000	    -43.39874912	     -0.96062962	      5.22050971	     -0.24321384	      1.04085132	      0.26029460	     78.46078310	    -11.37218370	     -8.27209865	     42.68258906	      0.74495171	    -10.07791987	     -5.32535198	      0.00000000	    110.78059314	     -5.13975689	      2.16573264	    118.26834500	      2.06417202	     16.90588152	     10.14989153	      0.00000000	     -0.03946095	     -0.13814422	     -1.48086156	     -0.07328294	     -0.18373181	     -1.57341541	     -0.06483040	     -0.33588385	     -1.57341541	     -0.04509993	     -0.33588385	     -1.29575386	     -0.03664344	     -0.28170369	     -1.20320002	     -0.02254799	     -0.21398539	     -1.11064617	     -0.28186565	     -1.56271501	     -8.23610773	      0.00000000	      0.00000000	     -0.00000000	      0.00000000	      0.00000000	     70.56868134	    -13.33260370	     26.93769965	     33.41404217	     45.69546794	      0.00000000	      5.00000014	     74.52434577	    -12.41125108	     31.33866399	     36.53266670	     57.33250439	      0.00000000	      5.00000014
     12.27500000	    -43.43341136	     -1.15446209	      5.61905482	     -0.24336474	      1.04080530	      0.25974924	     77.44264594	    -11.39997185	     -8.58601501	     42.10879394	      0.73493710	    -11.04647049	     -7.33394703	      0.00000000	    111.89799483	     -4.80921096	      1.95895620	    118.35230141	      2.06563734	     17.85976483	     10.65688707	      0.00000000	     -0.03805583	     -0.12324353	     -1.57347337	     -0.07067349	     -0.16391389	     -1.67181546	     -0.06252193	     -0.29965431	     -1.67181546	     -0.04349401	     -0.29965431	     -1.37678920	     -0.03533865	     -0.25131820	     -1.27844711	     -0.02174510	     -0.19090423	     -1.18010503	     -0.27182902	     -1.39415544	     -8.75118684	      0.00000000	      0.00000000	     -0.00000000	      0.00000000	      0.00000000	     70.62399469	    -13.36076361	     27.20495632	     33.33417106	     45.74638917	      0.00000000	      5.00000014	     74.35324586	    -12.58388090	     31.10298388	     36.89955656	     57.30307893	      0.00000000	      5.00000014
     12.28300000	    -43.47062829	     -1.15784739	      5.83234174	     -0.24367717	      1.04073771	      0.25950890	     76.53964278	    -11.33730641	     -8.37001303	     41.71164147	      0.72800548	    -11.14088838	     -7.70176298	      0.00000000	    112.93854553	     -4.69942616	      1.51241389	    118.25637525	      2.06396311	     18.29827302	     10.61237150	      0.00000000	     -0.03866875	     -0.13515749	     -1.62116816	     -0.07181173	     -0.17975946	     -1.72249117	     -0.06352888	     -0.32862193	     -1.72249117	     -0.04419451	     -0.32862193	     -1.41852214	     -0.03590780	     -0.27561316	     -1.31719913	     -0.02209532	     -0.20935896	     -1.21587612	     -0.27620698	     -1.52892858	     -9.01645096	      0.00000000	      0.00000000	     -0.00000000	      0.00000000	      0.00000000	     70.58766129	    -13.40770608	     27.24194668	     33.33936420	     45.75407812	      0.00000000	      5.00000014	     74.37388548	    -12.59344412	     31.00090035	     36.90706784	     57.29056922	      0.00000000	      5.00000014
     12.29200000	    -43.52074955	     -1.24202231	      6.03855549	     -0.24419292	      1.04058568	      0.25929255	     75.89337196	    -11.17295854	     -8.07230079	     41.76035135	      0.72885563	    -12.00638771	     -9.65712344	      0.00000000	    113.91335222	     -4.54544070	      1.09697457	    117.95917361	      2.05877596	     18.89381831	     10.42685684	      0.00000000	     -0.03800005	     -0.13434341	     -1.67184950	     -0.07056990	     -0.17867674	     -1.77634010	     -0.06243029	     -0.32664257	     -1.77634010	     -0.04343026	     -0.32664257	     -1.46286831	     -0.03528685	     -0.27395309	     -1.35837772	     -0.02171323	     -0.20809795	     -1.25388713	     -0.27143057	     -1.51971955	     -9.29832538	      0.00000000	      0.00000000	     -0.00000000	      0.00000000	      0.00000000	     70.64186427	    -13.40153194	     27.38206690	     33.28083174	     45.78472152	      0.00000000	      5.00000014	     74.26183130	    -12.58054914	     30.33727860	     37.11231916	     57.20427409	      0.00000000	      5.00000014
